<svg width="701" height="522" viewBox="0 0 701 522" fill="none" xmlns="http://www.w3.org/2000/svg">
<g clip-path="url(#clip0_9_4)">
<path d="M701 458.734H0V459.084H701V458.734Z" fill="#EBEBEB"/>
<path d="M332.288 396.253H61.5621C57.1458 396.253 53.5566 392.666 53.5566 388.253V7.9993C53.5566 3.58638 57.1458 0 61.5621 0H332.288C336.705 0 340.294 3.58638 340.294 7.9993V388.253C340.294 392.666 336.705 396.253 332.288 396.253ZM61.5621 0.350232C57.342 0.350232 53.9071 3.78251 53.9071 7.9993V388.253C53.9071 392.47 57.342 395.902 61.5621 395.902H332.288C336.508 395.902 339.943 392.47 339.943 388.253V7.9993C339.943 3.78251 336.508 0.350232 332.288 0.350232H61.5621Z" fill="#EBEBEB"/>
<path d="M635.541 396.253H364.814C360.398 396.253 356.809 392.666 356.809 388.253V7.9993C356.809 3.58638 360.398 0 364.814 0H635.541C639.957 0 643.546 3.58638 643.546 7.9993V388.253C643.546 392.666 639.957 396.253 635.541 396.253ZM364.814 0.350232C360.594 0.350232 357.16 3.78251 357.16 7.9993V388.253C357.16 392.47 360.594 395.902 364.814 395.902H635.541C639.761 395.902 643.196 392.47 643.196 388.253V7.9993C643.196 3.78251 639.761 0.350232 635.541 0.350232H364.814Z" fill="#EBEBEB"/>
<path d="M630.76 472.071H586.499V472.421H630.76V472.071Z" fill="#EBEBEB"/>
<path d="M470.146 468.274H423.306V468.625H470.146V468.274Z" fill="#EBEBEB"/>
<path d="M643.546 485.086H556.019V485.436H643.546V485.086Z" fill="#EBEBEB"/>
<path d="M100.509 482.732H73.5488V483.082H100.509V482.732Z" fill="#EBEBEB"/>
<path d="M155.468 482.732H113.001V483.082H155.468V482.732Z" fill="#EBEBEB"/>
<path d="M342.284 476.806H265.791V477.156H342.284V476.806Z" fill="#EBEBEB"/>
<path d="M639.943 280.592C625.726 274.638 602.159 280.382 582.643 304.03C573.628 314.957 564.95 330.983 562.594 347.374C562.749 328.658 562.931 308.555 563.127 289.586C566.141 277.174 568.917 271.5 573.208 262.884C587.522 234.137 599.355 237.303 618.801 214.804C651.145 177.372 669.693 106.751 637.503 134.895C608.328 160.406 594.224 185.931 584.41 208.08C571.161 238.004 565.833 258.892 563.225 279.864C563.408 262.044 563.59 245.681 563.73 233.059C564.221 191.885 565.356 178.646 565.553 174.556C566.057 164.651 569.338 158.879 570.235 157.464C577.904 145.43 589.947 137.557 601.738 123.842C629.217 91.9009 645.088 52.3387 631.853 48.6683C618.015 44.8437 599.818 62.2713 579.615 103.178C568.034 126.63 565.09 132.178 562.749 178.128C562.538 182.121 561.669 197.167 561.248 218.083C557.982 195.598 551.771 173.267 540.919 158.445C520.016 129.88 504.131 127.148 492.536 129.88C480.956 132.612 485.807 162.606 498.873 178.632C518.544 202.756 551.294 197.629 561.024 229.724C560.533 258.065 560.183 293.957 559.987 327.383C556.678 310.124 553.229 295.764 545.63 282.245C531.498 257.112 514.113 246.143 502.154 257.981C494.71 265.336 503.346 285.972 518.922 294.447C534.723 303.049 547.677 314.957 552.696 322.102C553.874 323.769 557.743 330.171 559.959 333.841C559.748 374.65 559.776 410.668 560.127 422.954L562.216 423.08C562.09 419.914 562.188 399.153 562.398 371.68C565.833 337.386 590.074 335.522 605.566 329.008C633.213 317.38 654.145 286.546 639.929 280.592H639.943Z" fill="#E6E6E6"/>
<path d="M541.186 458.734H582.055C584.284 458.734 586.204 457.431 586.653 455.61L589.555 404.98H533.686L536.588 455.61C537.036 457.431 538.957 458.734 541.186 458.734Z" fill="#E6E6E6"/>
<path d="M534.709 422.212H588.532C589.821 422.212 590.901 420.517 591.055 418.275L592.149 401.17C592.317 398.536 591.139 396.239 589.625 396.239H533.601C532.087 396.239 530.909 398.536 531.078 401.17L532.171 418.275C532.311 420.517 533.405 422.212 534.695 422.212H534.709Z" fill="#F5F5F5"/>
<path d="M260.772 349.546H207.734V449.446H260.772V349.546Z" fill="#F0F0F0"/>
<path d="M479.498 449.46H217.927V458.734H479.498V449.46Z" fill="#F0F0F0"/>
<path d="M260.772 449.46H489.677V349.56H260.772V449.46Z" fill="#FAFAFA"/>
<path d="M281.634 392.442H468.829V361.706H281.634V392.442Z" fill="#F0F0F0"/>
<path d="M281.634 431.948H468.829V401.212H281.634V431.948Z" fill="#F0F0F0"/>
<path d="M352.267 357.895H398.196C399.977 357.895 401.421 359.338 401.421 361.117V361.257C401.421 363.037 399.977 364.48 398.196 364.48H352.267C350.486 364.48 349.042 363.037 349.042 361.257V361.117C349.042 359.338 350.486 357.895 352.267 357.895Z" fill="#FAFAFA"/>
<path d="M352.267 397.387H398.196C399.977 397.387 401.421 398.83 401.421 400.61V400.75C401.421 402.529 399.977 403.972 398.196 403.972H352.267C350.486 403.972 349.042 402.529 349.042 400.75V400.61C349.042 398.83 350.486 397.387 352.267 397.387Z" fill="#FAFAFA"/>
<path d="M496.757 340.594H260.786V349.546H496.757V340.594Z" fill="#F0F0F0"/>
<path d="M200.318 349.546H260.772V340.594H200.318V349.546Z" fill="#E6E6E6"/>
<path d="M156.8 380.394C150.743 377.228 140.116 378.867 130.596 388.576C126.194 393.059 121.75 399.811 120.095 406.97C120.881 398.704 121.722 389.822 122.521 381.445C124.329 376.079 125.759 373.67 127.989 370.027C135.405 357.867 140.523 359.716 149.958 350.512C165.674 335.2 176.554 304.688 161.258 315.909C147.392 326.08 140.186 336.825 135.013 346.24C128.017 358.96 124.876 367.996 122.927 377.158C123.685 369.285 124.386 362.07 124.932 356.494C126.713 338.31 127.722 332.51 127.961 330.717C128.563 326.36 130.232 323.937 130.68 323.334C134.522 318.305 140.144 315.279 145.878 309.675C159.239 296.605 167.749 279.723 162.043 277.594C156.071 275.381 147.378 282.385 136.891 299.701C130.877 309.619 129.363 311.959 126.587 332.188C126.348 333.939 125.395 340.566 124.414 349.784C123.825 339.725 121.932 329.625 117.698 322.662C109.552 309.241 102.626 307.434 97.411 308.204C92.1816 308.975 93.191 322.41 98.3644 329.989C106.131 341.392 120.81 340.37 123.881 354.925C122.591 367.436 121.063 383.28 119.717 398.046C118.904 390.299 117.922 383.812 115.09 377.55C109.805 365.909 102.528 360.403 96.7942 365.18C93.2331 368.15 96.2614 377.592 102.823 381.935C109.482 386.334 114.754 392.092 116.703 395.44C117.151 396.225 118.623 399.195 119.464 400.904C117.824 418.934 116.464 434.848 116.156 440.284L117.067 440.41C117.137 439.009 117.964 429.833 119.1 417.701C121.918 402.683 132.699 402.767 139.793 400.484C152.454 396.393 162.87 383.56 156.814 380.394H156.8Z" fill="#F0F0F0"/>
<path d="M63.0059 349.181C70.8431 345.651 84.0639 348.495 95.308 361.398C100.495 367.352 105.585 376.163 107.127 385.269C106.762 374.832 106.356 363.625 105.963 353.048C104.099 346.169 102.472 343.045 99.9486 338.31C91.5366 322.494 84.9893 324.441 73.8013 312.183C55.1968 291.785 43.8125 252.686 62.1787 267.9C78.8345 281.685 87.0782 295.708 92.8825 307.924C100.72 324.413 104 335.985 105.767 347.64C105.402 337.708 105.052 328.588 104.785 321.541C103.888 298.58 103.061 291.225 102.893 288.942C102.458 283.422 100.551 280.256 100.019 279.471C95.5603 272.873 88.7326 268.67 81.9469 261.189C66.1464 243.79 56.6969 221.963 64.0294 219.722C71.6843 217.382 82.1011 226.824 93.9761 249.337C100.79 262.24 102.514 265.294 104.505 290.889C104.673 293.116 105.388 301.494 105.935 313.15C107.421 300.555 110.548 288.017 116.38 279.583C127.61 263.333 136.429 261.581 142.934 262.926C149.439 264.271 147.168 281.082 140.13 290.216C129.531 303.96 111.179 301.592 106.244 319.636C106.945 335.438 107.674 355.444 108.29 374.09C109.875 364.41 111.585 356.354 115.623 348.705C123.124 334.472 132.657 328.097 139.513 334.528C143.775 338.52 139.261 350.162 130.708 355.121C122.03 360.151 114.978 366.987 112.286 371.05C111.655 372.003 109.594 375.617 108.417 377.704C109.146 400.455 109.664 420.545 109.65 427.395L108.487 427.493C108.515 425.728 108.15 414.143 107.618 398.83C105.192 379.764 91.6488 379.077 82.9003 375.673C67.31 369.593 55.1687 352.726 63.0199 349.181H63.0059Z" fill="#E6E6E6"/>
<path d="M96.1631 458.734H132.419C134.396 458.734 136.106 457.571 136.499 455.96L139.078 411.046H89.5176L92.0973 455.96C92.4898 457.571 94.2003 458.734 96.1771 458.734H96.1631Z" fill="#E6E6E6"/>
<path d="M90.4149 426.331H138.153C139.303 426.331 140.256 424.832 140.382 422.842L141.364 407.67C141.518 405.345 140.466 403.299 139.134 403.299H89.4475C88.1016 403.299 87.0641 405.345 87.2183 407.67L88.1997 422.842C88.3259 424.832 89.2933 426.331 90.4289 426.331H90.4149Z" fill="#F5F5F5"/>
<path d="M383.068 34.8971H84.3862V203.653H383.068V34.8971Z" fill="#E6E6E6"/>
<path d="M392.406 34.8971H85.9707V203.653H392.406V34.8971Z" fill="#F5F5F5"/>
<path d="M384.947 48.192V190.33C384.947 193.566 382.325 196.186 379.086 196.186L99.2893 196.186C96.0507 196.186 93.4289 193.566 93.4289 190.33V48.192C93.4289 44.9558 96.0507 42.3361 99.2893 42.3361L379.086 42.3361C382.325 42.3361 384.947 44.9558 384.947 48.192Z" fill="white"/>
<path d="M350.5 522C500.629 522 622.334 514.9 622.334 506.142C622.334 497.383 500.629 490.283 350.5 490.283C200.37 490.283 78.666 497.383 78.666 506.142C78.666 514.9 200.37 522 350.5 522Z" fill="#F5F5F5"/>
<path d="M563.478 360.669H529.83V359.268H563.478C571.287 359.268 578.844 354.673 582.728 347.556L583.961 348.229C579.839 355.794 571.792 360.669 563.478 360.669Z" fill="#27DEBF"/>
<path d="M523.17 359.268H509.389V360.669H523.17V359.268Z" fill="#27DEBF"/>
<path d="M563.478 355.766H169.796C160.543 355.766 153.631 348.201 154.444 338.955L175.727 95.1931C176.54 85.947 184.77 78.382 194.023 78.382H587.704C596.958 78.382 603.87 85.947 603.056 95.1931L581.774 338.955C580.961 348.201 572.731 355.766 563.478 355.766Z" fill="#27DEBF"/>
<path d="M555.276 350.666H171.409C163.529 350.666 157.641 344.222 158.328 336.349L177.718 114.288C177.914 112.018 179.919 110.183 182.19 110.183H586.471C588.742 110.183 590.424 112.018 590.228 114.288L570.838 336.349C570.151 344.222 563.141 350.666 555.262 350.666H555.276Z" fill="white"/>
<path d="M220.339 99.0457C208.94 99.0457 200.472 89.7715 201.468 78.382C202.463 66.9924 212.543 57.7183 223.956 57.7183C235.368 57.7183 243.822 66.9924 242.827 78.382H234.415C235.004 71.6155 229.984 66.1238 223.213 66.1238C216.441 66.1238 210.469 71.6155 209.88 78.382C209.291 85.1344 214.31 90.6401 221.082 90.6401L220.353 99.0457H220.339Z" fill="#263238"/>
<path d="M303.547 99.0457C292.149 99.0457 283.681 89.7715 284.676 78.382C285.672 66.9924 295.752 57.7183 307.164 57.7183C318.577 57.7183 327.031 66.9924 326.035 78.382H317.623C318.212 71.6155 313.193 66.1238 306.421 66.1238C299.65 66.1238 293.677 71.6155 293.088 78.382C292.499 85.1344 297.518 90.6401 304.29 90.6401L303.561 99.0457H303.547Z" fill="#263238"/>
<path d="M386.756 99.0457C375.358 99.0457 366.89 89.7715 367.885 78.382C368.881 66.9924 378.961 57.7183 390.373 57.7183C401.786 57.7183 410.24 66.9924 409.244 78.382H400.832C401.421 71.6155 396.402 66.1238 389.63 66.1238C382.859 66.1238 376.886 71.6155 376.297 78.382C375.708 85.1344 380.728 90.6401 387.499 90.6401L386.77 99.0457H386.756Z" fill="#263238"/>
<path d="M469.965 99.0457C458.566 99.0457 450.098 89.7715 451.094 78.382C452.089 66.9924 462.169 57.7183 473.582 57.7183C484.994 57.7183 493.448 66.9924 492.453 78.382H484.041C484.63 71.6155 479.61 66.1238 472.839 66.1238C466.067 66.1238 460.095 71.6155 459.506 78.382C458.917 85.1344 463.936 90.6401 470.708 90.6401L469.979 99.0457H469.965Z" fill="#263238"/>
<path d="M553.174 99.0457C541.775 99.0457 533.307 89.7715 534.303 78.382C535.298 66.9924 545.378 57.7183 556.791 57.7183C568.203 57.7183 576.657 66.9924 575.662 78.382H567.25C567.838 71.6155 562.819 66.1238 556.048 66.1238C549.276 66.1238 543.303 71.6155 542.715 78.382C542.126 85.1344 547.145 90.6401 553.917 90.6401L553.188 99.0457H553.174Z" fill="#263238"/>
<path d="M554.267 340.594H174.787C174.395 340.594 174.115 340.286 174.143 339.893L193.056 123.226C193.084 122.833 193.434 122.525 193.813 122.525H573.278C573.671 122.525 573.951 122.833 573.923 123.226L555.01 339.893C554.982 340.286 554.631 340.594 554.253 340.594H554.267ZM175.615 339.193H553.678L572.465 123.926H194.415L175.629 339.193H175.615Z" fill="#E0E0E0"/>
<path d="M558.052 297.263H178.573C178.181 297.263 177.9 296.955 177.928 296.563C177.956 296.17 178.307 295.862 178.685 295.862H558.151C558.543 295.862 558.824 296.17 558.796 296.563C558.767 296.955 558.417 297.263 558.038 297.263H558.052Z" fill="#E0E0E0"/>
<path d="M561.824 253.918H182.358C181.966 253.918 181.685 253.61 181.713 253.218C181.741 252.826 182.092 252.517 182.47 252.517H561.936C562.328 252.517 562.609 252.826 562.581 253.218C562.553 253.61 562.202 253.918 561.824 253.918Z" fill="#E0E0E0"/>
<path d="M565.609 210.588H186.143C185.751 210.588 185.47 210.279 185.499 209.887C185.527 209.495 185.877 209.187 186.256 209.187H565.721C566.113 209.187 566.394 209.495 566.366 209.887C566.338 210.279 565.987 210.588 565.609 210.588Z" fill="#E0E0E0"/>
<path d="M569.394 167.257H189.929C189.537 167.257 189.256 166.949 189.284 166.556C189.312 166.164 189.663 165.856 190.041 165.856H569.507C569.899 165.856 570.18 166.164 570.152 166.556C570.123 166.949 569.773 167.257 569.394 167.257Z" fill="#E0E0E0"/>
<path d="M506.823 340.594C506.431 340.594 506.15 340.286 506.178 339.893L525.091 123.226C525.119 122.833 525.47 122.525 525.848 122.525C526.227 122.525 526.521 122.833 526.493 123.226L507.58 339.893C507.552 340.286 507.202 340.594 506.823 340.594Z" fill="#E0E0E0"/>
<path d="M459.393 340.594C459.001 340.594 458.72 340.286 458.749 339.893L477.662 123.226C477.69 122.833 478.04 122.525 478.419 122.525C478.797 122.525 479.092 122.833 479.064 123.226L460.151 339.893C460.122 340.286 459.772 340.594 459.393 340.594Z" fill="#E0E0E0"/>
<path d="M411.964 340.594C411.571 340.594 411.291 340.286 411.319 339.893L430.232 123.226C430.26 122.833 430.61 122.525 430.989 122.525C431.367 122.525 431.662 122.833 431.634 123.226L412.721 339.893C412.693 340.286 412.342 340.594 411.964 340.594Z" fill="#E0E0E0"/>
<path d="M364.534 340.594C364.142 340.594 363.861 340.286 363.889 339.893L382.802 123.226C382.83 122.833 383.181 122.525 383.559 122.525C383.938 122.525 384.232 122.833 384.204 123.226L365.291 339.893C365.263 340.286 364.913 340.594 364.534 340.594Z" fill="#E0E0E0"/>
<path d="M317.091 340.594C316.698 340.594 316.418 340.286 316.446 339.893L335.359 123.226C335.387 122.833 335.737 122.525 336.116 122.525C336.494 122.525 336.789 122.833 336.761 123.226L317.848 339.893C317.82 340.286 317.469 340.594 317.091 340.594Z" fill="#E0E0E0"/>
<path d="M269.661 340.594C269.268 340.594 268.988 340.286 269.016 339.893L287.929 123.226C287.957 122.833 288.308 122.525 288.686 122.525C289.065 122.525 289.359 122.833 289.331 123.226L270.418 339.893C270.39 340.286 270.04 340.594 269.661 340.594Z" fill="#E0E0E0"/>
<path d="M222.231 340.594C221.839 340.594 221.558 340.286 221.586 339.893L240.499 123.226C240.527 122.833 240.878 122.525 241.256 122.525C241.635 122.525 241.929 122.833 241.901 123.226L222.988 339.893C222.96 340.286 222.61 340.594 222.231 340.594Z" fill="#E0E0E0"/>
<path d="M414.529 205.558H385.55C383.068 205.558 381.246 203.555 381.456 201.075L383.699 175.368C383.909 172.889 386.097 170.885 388.578 170.885H417.557C420.039 170.885 421.862 172.889 421.651 175.368L419.408 201.075C419.198 203.555 417.011 205.558 414.529 205.558Z" fill="#27DEBF"/>
<path opacity="0.6" d="M414.529 205.558H385.55C383.068 205.558 381.246 203.555 381.456 201.075L383.699 175.368C383.909 172.889 386.097 170.885 388.578 170.885H417.557C420.039 170.885 421.862 172.889 421.651 175.368L419.408 201.075C419.198 203.555 417.011 205.558 414.529 205.558Z" fill="white"/>
<path d="M616.726 205.558H586.26L589.275 170.885H619.754L608.3 188.215L616.726 205.558Z" fill="white"/>
<path d="M617.861 206.259H585.489L588.644 170.185H621.016L609.113 188.215L617.875 206.245L617.861 206.259ZM587.017 204.858H615.576L607.501 188.229L618.492 171.6H589.934L587.031 204.872L587.017 204.858Z" fill="#27DEBF"/>
<path d="M505.337 248.889H476.357C473.876 248.889 472.053 246.886 472.264 244.406L474.507 218.699C474.717 216.219 476.904 214.216 479.386 214.216H508.365C510.847 214.216 512.669 216.219 512.459 218.699L510.216 244.406C510.005 246.886 507.818 248.889 505.337 248.889Z" fill="#27DEBF"/>
<path opacity="0.4" d="M505.337 248.889H476.357C473.876 248.889 472.053 246.886 472.264 244.406L474.507 218.699C474.717 216.219 476.904 214.216 479.386 214.216H508.365C510.847 214.216 512.669 216.219 512.459 218.699L510.216 244.406C510.005 246.886 507.818 248.889 505.337 248.889Z" fill="white"/>
<path d="M560.87 162.214H483.915C481.433 162.214 479.61 160.21 479.821 157.731L482.064 132.024C482.274 129.544 484.461 127.541 486.943 127.541H563.899C566.38 127.541 568.203 129.544 567.993 132.024L565.749 157.731C565.539 160.21 563.352 162.214 560.87 162.214Z" fill="#27DEBF"/>
<path d="M253.93 199.688C242.238 199.688 232.494 195.556 225.596 187.64C216.721 177.456 215.375 164.819 222.105 154.663C232.059 139.603 258.052 131.561 275.142 133.789C275.521 133.845 275.759 134.195 275.675 134.573C275.591 134.951 275.213 135.218 274.834 135.176C258.164 133.004 232.9 140.765 223.254 155.349C215.67 166.837 220.058 179.053 226.689 186.66C235.957 197.293 248.603 198.778 257.575 198.147C274.666 196.957 293.397 187.192 304.164 173.869C307.178 170.143 311.805 162.984 308.973 156.988C304.781 148.12 290.789 148.723 279.068 150.236C278.69 150.292 278.353 150.011 278.339 149.633C278.325 149.255 278.619 148.905 279.012 148.849C286.835 147.84 305.145 145.472 310.263 156.302C313.417 162.97 308.468 170.689 305.243 174.682C294.21 188.341 275.044 198.329 257.561 199.548C256.342 199.632 255.122 199.674 253.944 199.674L253.93 199.688Z" fill="#27DEBF"/>
<path d="M487.868 241.156C487.868 241.156 487.784 241.156 487.742 241.156C487.293 241.114 486.901 240.862 486.705 240.455C484.602 236.155 482.793 233.381 480.83 231.447C480.297 230.929 480.34 230.047 480.9 229.472C481.475 228.898 482.358 228.856 482.891 229.374C484.784 231.237 486.508 233.731 488.401 237.359C492.887 232.708 498.117 228.155 504.005 223.798C504.65 223.308 505.533 223.42 505.954 224.023C506.389 224.625 506.206 225.508 505.562 225.984C499.21 230.691 493.63 235.622 488.99 240.652C488.695 240.974 488.289 241.156 487.868 241.156Z" fill="white"/>
<path d="M436.26 333.953C427.582 333.953 421.133 326.893 421.89 318.221C422.647 309.549 430.33 302.489 439.008 302.489C447.687 302.489 454.136 309.549 453.379 318.221C452.622 326.893 444.939 333.953 436.26 333.953ZM438.756 305.29C431.62 305.29 425.311 311.09 424.694 318.221C424.077 325.352 429.377 331.152 436.499 331.152C443.621 331.152 449.944 325.352 450.561 318.221C451.178 311.09 445.878 305.29 438.756 305.29Z" fill="#27DEBF"/>
<path d="M301.458 247.124C292.78 247.124 286.331 240.063 287.088 231.391C287.845 222.72 295.528 215.659 304.206 215.659C312.885 215.659 319.334 222.72 318.577 231.391C317.82 240.063 310.137 247.124 301.458 247.124ZM303.954 218.461C296.818 218.461 290.509 224.261 289.892 231.391C289.275 238.522 294.574 244.322 301.697 244.322C308.819 244.322 315.142 238.522 315.759 231.391C316.376 224.261 311.076 218.461 303.954 218.461Z" fill="#27DEBF"/>
<path opacity="0.1" d="M328.825 284.795H183.157C177.381 284.795 173.048 280.06 173.553 274.288C174.058 268.516 179.203 263.781 184.979 263.781H330.647C336.423 263.781 340.756 268.516 340.251 274.288C339.746 280.06 334.601 284.795 328.825 284.795Z" fill="black"/>
<path d="M135.138 251.397L140.606 253.75L133.274 262.73C133.274 262.73 131.241 259.312 130.302 255.656C129.909 254.128 130.806 252.559 132.334 252.153L135.138 251.411V251.397Z" fill="#FF8B7B"/>
<path d="M143.116 263.389L139.835 267.031C138.77 268.208 136.877 268.082 135.98 266.765L133.26 262.73L140.592 253.75L143.55 260.811C143.915 261.679 143.747 262.688 143.116 263.389Z" fill="#FF8B7B"/>
<path d="M335.975 281.264L146.368 266.261C140.606 265.798 136.667 260.755 137.634 255.025C138.587 249.309 144.097 244.994 149.859 245.457L339.466 260.461C345.228 260.923 349.168 265.966 348.2 271.696C347.247 277.412 341.737 281.727 335.975 281.264Z" fill="#27DEBF"/>
<path d="M202.182 192.852C204.551 198.189 206.977 203.667 209.444 209.005C211.898 214.314 214.421 219.722 217.141 224.345C217.814 225.479 218.501 226.516 219.062 227.203C219.903 228.197 220.843 229.22 221.796 230.271C223.745 232.358 225.82 234.445 227.909 236.547C232.101 240.736 236.363 244.994 240.513 249.337L236.265 254.815C230.923 251.747 225.82 248.427 220.843 244.812C218.347 243.005 215.894 241.128 213.468 239.083C212.248 238.074 211.043 236.967 209.809 235.776C208.323 234.263 207.271 232.82 206.29 231.447C202.49 225.942 199.658 220.534 196.854 215.015C194.106 209.495 191.611 203.975 189.27 198.245L202.168 192.838L202.182 192.852Z" fill="#FF8B7B"/>
<path d="M155.818 192.053C152.636 197.251 149.369 202.476 146.102 207.646L136.358 223.168L135.167 225.101L135.012 225.339L134.942 225.451V225.479C134.942 225.479 134.886 225.536 134.858 225.564C134.802 225.62 134.746 225.802 134.676 225.9C134.424 226.53 134.185 227.623 134.073 228.814C133.877 231.237 134.017 234.081 134.311 236.939C134.928 242.669 136.05 248.693 137.256 254.535L130.764 256.944C127.82 251.159 125.465 245.303 123.768 238.9C122.955 235.678 122.254 232.386 122.128 228.632C122.086 226.74 122.128 224.737 122.731 222.397C122.927 221.781 123.067 221.207 123.348 220.562L123.782 219.596L123.965 219.217L124.105 218.951L125.17 216.85C128.044 211.26 131.073 205.81 134.213 200.431C137.354 195.051 140.592 189.77 144.027 184.53L155.832 192.039L155.818 192.053Z" fill="#FF8B7B"/>
<path d="M192.915 153.192C192.649 153.892 192.803 154.606 193.252 154.789C193.7 154.971 194.275 154.564 194.541 153.864C194.808 153.164 194.654 152.449 194.205 152.267C193.756 152.085 193.181 152.491 192.915 153.192Z" fill="#263238"/>
<path d="M192.746 154.578C192.746 154.578 192.817 159.258 193.812 161.919C192.172 162.564 190.293 161.177 190.293 161.177L192.746 154.578Z" fill="#FF5652"/>
<path d="M195.48 149.101C195.396 149.101 195.312 149.045 195.242 148.989C195.186 148.947 194.008 147.868 192.186 148.33C191.947 148.386 191.709 148.246 191.653 148.008C191.597 147.77 191.737 147.532 191.975 147.476C194.289 146.901 195.789 148.288 195.845 148.344C196.013 148.512 196.027 148.779 195.859 148.961C195.761 149.073 195.607 149.115 195.48 149.087V149.101Z" fill="#263238"/>
<path d="M167.356 154.578C166.487 162.115 167.917 171.614 162.758 175.396C162.758 175.396 163.837 182.471 176.245 184.32C189.887 186.352 183.507 178.478 183.507 178.478C176.259 175.578 177.058 170.059 178.923 165.043L167.342 154.578H167.356Z" fill="#FF8B7B"/>
<path d="M158.356 180.131C158.187 176.657 158.37 171.404 160.515 170.647C162.87 169.821 176.792 170.927 183.774 177.246C181.152 182.191 181.39 187.416 181.39 187.416L158.356 180.131Z" fill="#263238"/>
<path d="M115.763 492.595C114.557 492.595 112.791 491.894 112.132 491.558C112.062 491.516 112.006 491.432 112.02 491.348C112.02 491.264 112.076 491.194 112.16 491.152C112.272 491.11 115.09 490.031 116.338 490.647C116.632 490.787 116.829 491.012 116.913 491.32C117.081 491.88 116.885 492.188 116.702 492.342C116.492 492.525 116.156 492.595 115.763 492.595ZM112.805 491.39C114.095 491.95 115.931 492.398 116.422 492.006C116.464 491.964 116.618 491.852 116.492 491.446C116.436 491.264 116.324 491.138 116.142 491.04C115.399 490.675 113.772 491.068 112.805 491.39Z" fill="#407BFF"/>
<path d="M112.244 491.586C112.244 491.586 112.132 491.558 112.089 491.516C112.033 491.46 112.019 491.376 112.033 491.306C112.061 491.194 112.833 488.644 114.052 488.042C114.375 487.887 114.697 487.859 115.02 487.986C115.524 488.182 115.58 488.532 115.566 488.728C115.51 489.779 113.309 491.292 112.3 491.572C112.286 491.572 112.258 491.572 112.244 491.572V491.586ZM114.599 488.35C114.487 488.35 114.361 488.378 114.249 488.434C113.519 488.798 112.903 490.171 112.594 491.012C113.646 490.549 115.104 489.344 115.132 488.714C115.132 488.644 115.132 488.504 114.865 488.392C114.781 488.364 114.683 488.336 114.599 488.336V488.35Z" fill="#407BFF"/>
<path d="M186.241 496.671C185.134 496.671 183.998 496.531 183.409 496.419C183.325 496.405 183.255 496.335 183.241 496.237C183.227 496.153 183.269 496.055 183.339 496.013C183.802 495.747 187.896 493.393 188.891 495.018C189.171 495.466 189.073 495.789 188.933 495.985C188.569 496.517 187.419 496.671 186.241 496.671ZM184.096 496.083C185.835 496.321 188.162 496.293 188.569 495.733C188.597 495.677 188.695 495.55 188.513 495.242C187.952 494.318 185.456 495.368 184.096 496.083Z" fill="#407BFF"/>
<path d="M183.437 496.419C183.437 496.419 183.353 496.419 183.311 496.377C183.255 496.335 183.213 496.265 183.213 496.181C183.213 496.069 183.367 493.589 184.503 492.623C184.853 492.328 185.26 492.202 185.708 492.244C186.325 492.3 186.508 492.623 186.55 492.875C186.732 493.939 184.629 495.887 183.521 496.391C183.493 496.391 183.465 496.405 183.437 496.405V496.419ZM185.554 492.679C185.274 492.679 185.036 492.777 184.811 492.959C184.068 493.589 183.802 495.088 183.704 495.803C184.811 495.13 186.241 493.589 186.129 492.945C186.129 492.889 186.087 492.721 185.68 492.679C185.638 492.679 185.596 492.679 185.554 492.679Z" fill="#407BFF"/>
<path d="M173.301 496.195H182.526L182.624 474.831H173.385L173.301 496.195Z" fill="#FF8B7B"/>
<path d="M101.799 489.583L110.449 491.586L117.712 470.46L109.061 468.457L101.799 489.583Z" fill="#FF8B7B"/>
<path d="M111.795 490.143L101.743 487.621C101.378 487.523 101 487.705 100.846 488.041L97.3827 495.62C97.0182 496.405 97.5089 497.358 98.3501 497.554C101.869 498.38 103.622 498.59 108.052 499.711C110.772 500.398 116.324 502.093 120.081 503.031C123.754 503.956 125.114 500.356 123.656 499.627C117.081 496.377 114.922 493.617 113.141 491.067C112.819 490.605 112.342 490.283 111.809 490.143H111.795Z" fill="#263238"/>
<path d="M182.428 495.13H172.348C171.969 495.13 171.661 495.396 171.591 495.761L170.09 503.956C169.936 504.811 170.609 505.609 171.478 505.595C175.11 505.539 180.353 505.315 184.924 505.315C190.265 505.315 190.377 505.609 196.644 505.609C200.43 505.609 201.341 501.785 199.743 501.434C192.466 499.851 191.078 499.683 184.699 495.845C183.998 495.424 183.241 495.13 182.442 495.13H182.428Z" fill="#263238"/>
<path d="M151.949 174.766C143.172 175.466 130.792 197.461 130.792 197.461L146.691 211.848C146.691 211.848 154.206 203.667 160.164 194.141C166.417 184.166 160.921 174.051 151.949 174.766Z" fill="#407BFF"/>
<path opacity="0.6" d="M151.949 174.766C143.172 175.466 130.792 197.461 130.792 197.461L146.691 211.848C146.691 211.848 154.206 203.667 160.164 194.141C166.417 184.166 160.921 174.051 151.949 174.766Z" fill="white"/>
<path opacity="0.2" d="M156.435 190.624L145.934 211.162L146.677 211.848C146.677 211.848 150.743 207.407 155.271 201.285L156.435 190.638V190.624Z" fill="black"/>
<path d="M195.929 224.079C194.345 234.249 191.85 246.83 187.994 262.324L139.148 255.067C139.597 248.076 147.07 216.822 145.598 183.312C145.387 178.59 149.201 174.668 153.926 174.78C156.337 174.836 159.001 174.962 161.594 175.228C167.861 175.859 176.918 176.993 182.344 178.31C189.508 180.047 196.112 182.947 196.112 182.947C196.112 182.947 199.617 188.089 197.724 209.481C197.345 213.698 196.771 218.545 195.915 224.107L195.929 224.079Z" fill="#407BFF"/>
<path opacity="0.6" d="M195.929 224.079C194.345 234.249 191.85 246.83 187.994 262.324L139.148 255.067C139.597 248.076 147.07 216.822 145.598 183.312C145.387 178.59 149.201 174.668 153.926 174.78C156.337 174.836 159.001 174.962 161.594 175.228C167.861 175.859 176.918 176.993 182.344 178.31C189.508 180.047 196.112 182.947 196.112 182.947C196.112 182.947 199.617 188.089 197.724 209.481C197.345 213.698 196.771 218.545 195.915 224.107L195.929 224.079Z" fill="white"/>
<path opacity="0.2" d="M195.929 224.079C191.962 221.571 188.246 210.041 189.915 204.003L197.738 209.467C197.359 213.684 196.785 218.531 195.929 224.093V224.079Z" fill="black"/>
<path d="M184.952 189.167C182.428 197.573 197.71 222.327 197.71 222.327L215.978 212.787C215.978 212.787 211.828 200.319 205.253 190.722C197.92 180.005 187.784 179.683 184.952 189.153V189.167Z" fill="#407BFF"/>
<path opacity="0.6" d="M184.952 189.167C182.428 197.573 197.71 222.327 197.71 222.327L215.978 212.787C215.978 212.787 211.828 200.319 205.253 190.722C197.92 180.005 187.784 179.683 184.952 189.153V189.167Z" fill="white"/>
<path opacity="0.2" d="M182.61 474.845L182.568 485.856H173.329L173.385 474.845H182.61Z" fill="black"/>
<path opacity="0.2" d="M109.061 468.457L117.712 470.46L113.954 481.345L105.318 479.356L109.061 468.457Z" fill="black"/>
<path d="M170.553 142.166C167.875 150.95 165.87 155.937 168.506 162.115C172.46 171.404 184.335 171.81 189.536 164.105C194.219 157.156 197.808 143.959 190.812 137.109C183.928 130.356 173.231 133.382 170.567 142.166H170.553Z" fill="#FF8B7B"/>
<path d="M184.671 151.833C183.62 156.33 180.886 164.441 174.142 165.38C170.399 165.898 164.146 164.791 163.557 161.765C162.968 158.725 165.309 159.145 164.721 156.666C164.132 154.186 161.061 145.528 164.552 139.35C159.701 139.757 163.038 132.584 171.731 130.889C169.039 129.838 170.329 122.525 183.76 125.986C190.041 127.597 194.709 130.076 195.27 133.438C200.99 135.848 202.49 141.914 198.943 144.142C195.508 146.285 190.279 143.847 190.279 143.847C190.279 143.847 192.704 156.75 184.657 151.847L184.671 151.833Z" fill="#263238"/>
<path d="M181.012 151.132C180.844 153.262 181.629 155.349 182.736 156.764C184.405 158.879 184.966 158.907 185.653 156.54C186.269 154.41 187.812 149.647 185.582 148.372C183.381 147.126 181.194 148.695 180.998 151.132H181.012Z" fill="#FF8B7B"/>
<path d="M170.665 259.746C170.665 259.746 163.08 332.062 158.356 358.47C153.182 387.385 118.707 480.406 118.707 480.406L102.304 476.288C110.744 444.108 123.179 384.065 130.764 361.089C136.484 326.164 130.792 282.273 139.148 255.067L170.665 259.746Z" fill="#263238"/>
<path d="M122.605 474.971C122.675 474.985 119.576 480.897 119.576 480.897L101.126 476.274L102.654 470.684L122.605 474.971Z" fill="#407BFF"/>
<path opacity="0.2" d="M165.982 287.947C166.543 287.835 167.076 287.821 167.581 287.905C165.141 309.507 161.706 338.38 158.972 354.883C156.715 330.885 154.598 290.188 165.982 287.947Z" fill="black"/>
<path d="M187.98 262.324C187.98 262.324 191.807 339.627 192.368 367.744C192.943 396.995 185.933 483.727 185.933 483.727H170.301C170.301 483.727 164.398 403.313 167.581 364.087C163.809 334.206 155.888 257.575 155.888 257.575L187.994 262.338L187.98 262.324Z" fill="#263238"/>
<path d="M244.438 248.455C242.209 248.259 239.209 248.567 236.952 249.519L235.816 251.397C234.849 252.994 235.634 255.067 237.414 255.641L242.896 257.393L245.574 258.205C246.738 258.555 247.985 258.135 248.7 257.14L249.85 255.543C250.691 254.381 250.509 252.756 249.443 251.803L246.976 249.575C246.275 248.945 245.392 248.553 244.452 248.469L244.438 248.455Z" fill="#FF8B7B"/>
<path d="M188.695 477.492C188.765 477.492 188.064 483.979 188.064 483.979H169.039L168.296 478.193L188.681 477.492H188.695Z" fill="#407BFF"/>
</g>
<defs>
<clipPath id="clip0_9_4">
<rect width="701" height="522" fill="white"/>
</clipPath>
</defs>
</svg>
