<svg width="48" height="48" viewBox="0 0 48 48" fill="none" xmlns="http://www.w3.org/2000/svg">
<g clip-path="url(#clip0_8_29)">
<path d="M23.83 47.66C36.9909 47.66 47.66 36.9909 47.66 23.83C47.66 10.6691 36.9909 0 23.83 0C10.6691 0 0 10.6691 0 23.83C0 36.9909 10.6691 47.66 23.83 47.66Z" fill="black"/>
<path d="M30.4001 15.8601C29.6001 15.8601 28.9501 16.5101 28.9501 17.3101C28.9501 18.1101 29.6001 18.7601 30.4001 18.7601C31.2001 18.7601 31.8501 18.1101 31.8501 17.3101C31.8501 16.5101 31.2001 15.8601 30.4001 15.8601Z" fill="white"/>
<path d="M23.9301 17.7201C20.5601 17.7201 17.8201 20.4601 17.8201 23.8301C17.8201 27.2001 20.5601 29.9401 23.9301 29.9401C27.3001 29.9401 30.0401 27.2001 30.0401 23.8301C30.0401 20.4601 27.3001 17.7201 23.9301 17.7201ZM23.9301 27.7401C21.7701 27.7401 20.0201 25.9801 20.0201 23.8301C20.0201 21.6801 21.7801 19.9201 23.9301 19.9201C26.0801 19.9201 27.8401 21.6801 27.8401 23.8301C27.8401 25.9801 26.0801 27.7401 23.9301 27.7401Z" fill="white"/>
<path d="M28.7801 36.2301H18.8801C14.7701 36.2301 11.4301 32.8901 11.4301 28.7801V18.8801C11.4301 14.7701 14.7701 11.4301 18.8801 11.4301H28.7801C32.8901 11.4301 36.2301 14.7701 36.2301 18.8801V28.7801C36.2301 32.8901 32.8901 36.2301 28.7801 36.2301ZM18.8801 13.7601C16.0601 13.7601 13.7601 16.0601 13.7601 18.8801V28.7801C13.7601 31.6001 16.0601 33.9001 18.8801 33.9001H28.7801C31.6001 33.9001 33.9001 31.6001 33.9001 28.7801V18.8801C33.9001 16.0601 31.6001 13.7601 28.7801 13.7601H18.8801Z" fill="white"/>
</g>
<defs>
<clipPath id="clip0_8_29">
<rect width="47.66" height="47.66" fill="white"/>
</clipPath>
</defs>
</svg>
