<svg width="48" height="48" viewBox="0 0 48 48" fill="none" xmlns="http://www.w3.org/2000/svg">
<g clip-path="url(#clip0_8_36)">
<path d="M23.83 47.66C36.9909 47.66 47.66 36.9909 47.66 23.83C47.66 10.6691 36.9909 0 23.83 0C10.6691 0 0 10.6691 0 23.83C0 36.9909 10.6691 47.66 23.83 47.66Z" fill="black"/>
<path d="M14.28 18.25H18.38V31.41H14.28V18.25ZM16.33 11.71C17.64 11.71 18.7 12.77 18.7 14.08C18.7 15.39 17.64 16.45 16.33 16.45C15.02 16.45 13.95 15.39 13.95 14.08C13.95 12.77 15.01 11.71 16.33 11.71Z" fill="white"/>
<path d="M20.9499 18.2499H24.8699V20.0499H24.9199C25.4699 19.0099 26.7999 17.9199 28.7899 17.9199C32.9299 17.9199 33.6999 20.6399 33.6999 24.1899V31.4099H29.6099V25.0099C29.6099 23.4799 29.5799 21.5199 27.4799 21.5199C25.3799 21.5199 25.0299 23.1799 25.0299 24.8999V31.4099H20.9399V18.2499H20.9499Z" fill="white"/>
</g>
<defs>
<clipPath id="clip0_8_36">
<rect width="47.66" height="47.66" fill="white"/>
</clipPath>
</defs>
</svg>
