<svg width="48" height="48" viewBox="0 0 48 48" fill="none" xmlns="http://www.w3.org/2000/svg">
<g clip-path="url(#clip0_8_42)">
<path d="M23.83 47.66C36.9909 47.66 47.66 36.9909 47.66 23.83C47.66 10.6691 36.9909 0 23.83 0C10.6691 0 0 10.6691 0 23.83C0 36.9909 10.6691 47.66 23.83 47.66Z" fill="black"/>
<path d="M29.38 22.79C29.49 22.84 29.59 22.89 29.7 22.93C31.19 23.65 32.29 24.73 32.86 26.07C33.66 27.94 33.74 30.97 31.31 33.39C29.46 35.24 27.2 36.07 24.02 36.1H24C20.41 36.07 17.66 34.87 15.8 32.51C14.15 30.41 13.3 27.49 13.27 23.84V23.82C13.3 20.15 14.14 17.23 15.8 15.14C17.66 12.78 20.42 11.58 24.01 11.55H24.03C27.62 11.58 30.42 12.78 32.33 15.12C33.27 16.28 33.97 17.68 34.41 19.3L32.34 19.85C31.98 18.53 31.43 17.41 30.69 16.51C29.2 14.68 26.96 13.74 24.02 13.72C21.11 13.75 18.9 14.68 17.47 16.5C16.13 18.2 15.44 20.67 15.41 23.82C15.44 26.97 16.13 29.44 17.47 31.15C18.9 32.97 21.11 33.91 24.02 33.93C26.65 33.91 28.39 33.2901 29.83 31.84C31.48 30.1901 31.45 28.17 30.92 26.94C30.61 26.21 30.05 25.61 29.29 25.16C29.1 26.54 28.69 27.63 28.03 28.47C27.16 29.58 25.91 30.1901 24.31 30.2701C23.1 30.34 21.94 30.0501 21.04 29.4501C19.98 28.7401 19.35 27.67 19.29 26.42C19.16 23.95 21.12 22.18 24.16 22C25.24 21.94 26.25 21.98 27.19 22.14C27.07 21.38 26.82 20.78 26.44 20.34C25.93 19.74 25.13 19.44 24.08 19.43H24.04C23.19 19.43 22.05 19.67 21.31 20.77L19.55 19.56C20.53 18.07 22.12 17.25 24.04 17.25H24.08C27.28 17.27 29.19 19.27 29.38 22.76H29.37V22.77L29.38 22.79ZM21.4 26.31C21.47 27.59 22.85 28.1901 24.19 28.1101C25.5 28.0401 26.98 27.53 27.23 24.37C26.56 24.22 25.81 24.15 25.01 24.15C24.76 24.15 24.52 24.15 24.27 24.17C22.08 24.29 21.35 25.36 21.4 26.31Z" fill="white"/>
</g>
<defs>
<clipPath id="clip0_8_42">
<rect width="47.66" height="47.66" fill="white"/>
</clipPath>
</defs>
</svg>
